M48
; DRILL file {KiCad 9.0.1} date 2025-04-21T20:59:24+0200
; FORMAT={-:-/ absolute / metric / decimal}
; #@! TF.CreationDate,2025-04-21T20:59:24+02:00
; #@! TF.GenerationSoftware,Kicad,Pcbnew,9.0.1
; #@! TF.FileFunction,Plated,1,2,PTH
FMAT,2
METRIC
; #@! TA.AperFunction,Plated,PTH,ComponentDrill
T1C1.000
; #@! TA.AperFunction,Plated,PTH,ComponentDrill
T2C1.300
; #@! TA.AperFunction,Plated,PTH,ComponentDrill
T3C2.200
%
G90
G05
T1
X148.925Y-107.625
X148.925Y-110.125
X151.425Y-107.625
X151.425Y-110.125
X153.925Y-107.625
X153.925Y-110.125
X154.175Y-102.2
X156.715Y-102.2
X160.725Y-107.725
X160.725Y-110.225
X163.225Y-107.725
X163.225Y-110.225
X165.725Y-107.725
X165.725Y-110.225
X166.485Y-102.325
X169.025Y-102.325
X171.565Y-102.325
X172.425Y-107.675
X172.425Y-110.175
X174.925Y-107.675
X174.925Y-110.175
X177.425Y-107.675
X177.425Y-110.175
T2
X152.825Y-95.125
X157.825Y-95.125
X164.025Y-95.125
X169.025Y-95.125
X174.025Y-95.125
T3
X143.225Y-93.25
X143.225Y-112.075
X183.175Y-112.025
X183.2Y-93.2
M30
