G04 #@! TF.GenerationSoftware,KiCad,Pcbnew,9.0.1*
G04 #@! TF.CreationDate,2025-04-21T21:40:15+02:00*
G04 #@! TF.ProjectId,3_pots_pcb_v0.2a,335f706f-7473-45f7-9063-625f76302e32,rev?*
G04 #@! TF.SameCoordinates,Original*
G04 #@! TF.FileFunction,Copper,L2,Bot*
G04 #@! TF.FilePolarity,Positive*
%FSLAX46Y46*%
G04 Gerber Fmt 4.6, Leading zero omitted, Abs format (unit mm)*
G04 Created by KiCad (PCBNEW 9.0.1) date 2025-04-21 21:40:15*
%MOMM*%
%LPD*%
G01*
G04 APERTURE LIST*
G04 #@! TA.AperFunction,ComponentPad*
%ADD10C,1.800000*%
G04 #@! TD*
G04 #@! TA.AperFunction,ComponentPad*
%ADD11C,2.500000*%
G04 #@! TD*
G04 #@! TA.AperFunction,ComponentPad*
%ADD12R,2.500000X2.500000*%
G04 #@! TD*
G04 #@! TA.AperFunction,ComponentPad*
%ADD13C,3.800000*%
G04 #@! TD*
G04 #@! TA.AperFunction,ComponentPad*
%ADD14C,1.700000*%
G04 #@! TD*
G04 #@! TA.AperFunction,ComponentPad*
%ADD15R,1.700000X1.700000*%
G04 #@! TD*
G04 APERTURE END LIST*
D10*
X148925000Y-110125000D03*
X151425000Y-110125000D03*
X153925000Y-110125000D03*
X148925000Y-107625000D03*
X151425000Y-107625000D03*
X153925000Y-107625000D03*
X160725000Y-110225000D03*
X163225000Y-110225000D03*
X165725000Y-110225000D03*
X160725000Y-107725000D03*
X163225000Y-107725000D03*
X165725000Y-107725000D03*
X172425000Y-110175000D03*
X174925000Y-110175000D03*
X177425000Y-110175000D03*
X172425000Y-107675000D03*
X174925000Y-107675000D03*
X177425000Y-107675000D03*
D11*
X152825000Y-95125000D03*
D12*
X157825000Y-95125000D03*
D13*
X143225000Y-93250000D03*
X183175000Y-112025000D03*
X183200000Y-93200000D03*
D14*
X154175000Y-102200000D03*
D15*
X156715000Y-102200000D03*
D13*
X143225000Y-112075000D03*
D14*
X166485000Y-102325000D03*
X169025000Y-102325000D03*
X171565000Y-102325000D03*
D11*
X164025000Y-95125000D03*
X169025000Y-95125000D03*
X174025000Y-95125000D03*
G04 #@! TA.AperFunction,Conductor*
G36*
X165259075Y-107917993D02*
G01*
X165324901Y-108032007D01*
X165417993Y-108125099D01*
X165532007Y-108190925D01*
X165595590Y-108207962D01*
X164927485Y-108876065D01*
X164927602Y-108877548D01*
X164967818Y-108929701D01*
X164973797Y-108999315D01*
X164941192Y-109061110D01*
X164925153Y-109075008D01*
X164812636Y-109156756D01*
X164656756Y-109312636D01*
X164656752Y-109312641D01*
X164575318Y-109424727D01*
X164519989Y-109467393D01*
X164450375Y-109473372D01*
X164388580Y-109440767D01*
X164374682Y-109424727D01*
X164293247Y-109312641D01*
X164293243Y-109312636D01*
X164137365Y-109156758D01*
X164068545Y-109106758D01*
X164025270Y-109075317D01*
X163982606Y-109019989D01*
X163976627Y-108950376D01*
X164009232Y-108888580D01*
X164025265Y-108874686D01*
X164137365Y-108793242D01*
X164293242Y-108637365D01*
X164374991Y-108524845D01*
X164430320Y-108482180D01*
X164499933Y-108476201D01*
X164561728Y-108508806D01*
X164573582Y-108522485D01*
X164573932Y-108522513D01*
X165242037Y-107854408D01*
X165259075Y-107917993D01*
G37*
G04 #@! TD.AperFunction*
G04 #@! TA.AperFunction,Conductor*
G36*
X176959075Y-107867993D02*
G01*
X177024901Y-107982007D01*
X177117993Y-108075099D01*
X177232007Y-108140925D01*
X177295590Y-108157962D01*
X176627485Y-108826065D01*
X176627602Y-108827548D01*
X176667818Y-108879701D01*
X176673797Y-108949315D01*
X176641192Y-109011110D01*
X176625153Y-109025008D01*
X176512636Y-109106756D01*
X176356756Y-109262636D01*
X176356752Y-109262641D01*
X176275318Y-109374727D01*
X176219989Y-109417393D01*
X176150375Y-109423372D01*
X176088580Y-109390767D01*
X176074682Y-109374727D01*
X175993247Y-109262641D01*
X175993243Y-109262636D01*
X175837365Y-109106758D01*
X175837357Y-109106752D01*
X175725270Y-109025317D01*
X175682606Y-108969989D01*
X175676627Y-108900376D01*
X175709232Y-108838580D01*
X175725265Y-108824686D01*
X175837365Y-108743242D01*
X175993242Y-108587365D01*
X176074991Y-108474845D01*
X176130320Y-108432180D01*
X176199933Y-108426201D01*
X176261728Y-108458806D01*
X176273582Y-108472485D01*
X176273932Y-108472513D01*
X176942037Y-107804408D01*
X176959075Y-107867993D01*
G37*
G04 #@! TD.AperFunction*
G04 #@! TA.AperFunction,Conductor*
G36*
X153459075Y-107817993D02*
G01*
X153524901Y-107932007D01*
X153617993Y-108025099D01*
X153732007Y-108090925D01*
X153795590Y-108107962D01*
X153127485Y-108776065D01*
X153127602Y-108777548D01*
X153167818Y-108829701D01*
X153173797Y-108899315D01*
X153141192Y-108961110D01*
X153125153Y-108975008D01*
X153012636Y-109056756D01*
X152856756Y-109212636D01*
X152856752Y-109212641D01*
X152775318Y-109324727D01*
X152719989Y-109367393D01*
X152650375Y-109373372D01*
X152588580Y-109340767D01*
X152574682Y-109324727D01*
X152493247Y-109212641D01*
X152493243Y-109212636D01*
X152337365Y-109056758D01*
X152296661Y-109027185D01*
X152225270Y-108975317D01*
X152182606Y-108919989D01*
X152176627Y-108850376D01*
X152209232Y-108788580D01*
X152225265Y-108774686D01*
X152337365Y-108693242D01*
X152493242Y-108537365D01*
X152574991Y-108424845D01*
X152630320Y-108382180D01*
X152699933Y-108376201D01*
X152761728Y-108408806D01*
X152773582Y-108422485D01*
X152773932Y-108422513D01*
X153442037Y-107754408D01*
X153459075Y-107817993D01*
G37*
G04 #@! TD.AperFunction*
G04 #@! TA.AperFunction,Conductor*
G36*
X185742539Y-90545185D02*
G01*
X185788294Y-90597989D01*
X185799500Y-90649500D01*
X185799500Y-92700876D01*
X185779815Y-92767915D01*
X185727011Y-92813670D01*
X185657853Y-92823614D01*
X185594297Y-92794589D01*
X185556523Y-92735811D01*
X185554609Y-92728469D01*
X185510315Y-92534405D01*
X185510312Y-92534397D01*
X185488145Y-92471049D01*
X185421267Y-92279921D01*
X185304284Y-92037003D01*
X185160838Y-91808711D01*
X184992734Y-91597915D01*
X184802085Y-91407266D01*
X184591289Y-91239162D01*
X184362997Y-91095716D01*
X184362994Y-91095714D01*
X184120082Y-90978734D01*
X183865602Y-90889687D01*
X183865594Y-90889684D01*
X183668446Y-90844687D01*
X183602732Y-90829688D01*
X183602728Y-90829687D01*
X183602719Y-90829686D01*
X183334813Y-90799500D01*
X183334809Y-90799500D01*
X183065191Y-90799500D01*
X183065186Y-90799500D01*
X182797280Y-90829686D01*
X182797268Y-90829688D01*
X182534405Y-90889684D01*
X182534397Y-90889687D01*
X182279917Y-90978734D01*
X182037005Y-91095714D01*
X181808712Y-91239161D01*
X181597915Y-91407265D01*
X181407265Y-91597915D01*
X181239161Y-91808712D01*
X181095714Y-92037005D01*
X180978734Y-92279917D01*
X180889687Y-92534397D01*
X180889684Y-92534405D01*
X180829688Y-92797268D01*
X180829686Y-92797280D01*
X180799500Y-93065186D01*
X180799500Y-93334813D01*
X180829686Y-93602719D01*
X180829688Y-93602731D01*
X180889684Y-93865594D01*
X180889687Y-93865602D01*
X180978734Y-94120082D01*
X181095714Y-94362994D01*
X181095716Y-94362997D01*
X181239162Y-94591289D01*
X181407266Y-94802085D01*
X181597915Y-94992734D01*
X181808711Y-95160838D01*
X182037003Y-95304284D01*
X182279921Y-95421267D01*
X182471049Y-95488145D01*
X182534397Y-95510312D01*
X182534405Y-95510315D01*
X182534408Y-95510315D01*
X182534409Y-95510316D01*
X182797268Y-95570312D01*
X183065187Y-95600499D01*
X183065188Y-95600500D01*
X183065191Y-95600500D01*
X183334812Y-95600500D01*
X183334812Y-95600499D01*
X183602732Y-95570312D01*
X183865591Y-95510316D01*
X184120079Y-95421267D01*
X184362997Y-95304284D01*
X184591289Y-95160838D01*
X184802085Y-94992734D01*
X184992734Y-94802085D01*
X185160838Y-94591289D01*
X185304284Y-94362997D01*
X185421267Y-94120079D01*
X185510316Y-93865591D01*
X185554609Y-93671529D01*
X185588718Y-93610552D01*
X185650379Y-93577694D01*
X185720016Y-93583389D01*
X185775520Y-93625829D01*
X185799268Y-93691539D01*
X185799500Y-93699123D01*
X185799500Y-111670221D01*
X185779815Y-111737260D01*
X185727011Y-111783015D01*
X185657853Y-111792959D01*
X185594297Y-111763934D01*
X185556523Y-111705156D01*
X185552280Y-111684105D01*
X185545313Y-111622280D01*
X185545312Y-111622268D01*
X185485316Y-111359409D01*
X185396267Y-111104921D01*
X185279284Y-110862003D01*
X185135838Y-110633711D01*
X184967734Y-110422915D01*
X184777085Y-110232266D01*
X184566289Y-110064162D01*
X184337997Y-109920716D01*
X184337994Y-109920714D01*
X184095082Y-109803734D01*
X183840602Y-109714687D01*
X183840594Y-109714684D01*
X183643446Y-109669687D01*
X183577732Y-109654688D01*
X183577728Y-109654687D01*
X183577719Y-109654686D01*
X183309813Y-109624500D01*
X183309809Y-109624500D01*
X183040191Y-109624500D01*
X183040186Y-109624500D01*
X182772280Y-109654686D01*
X182772268Y-109654688D01*
X182509405Y-109714684D01*
X182509397Y-109714687D01*
X182254917Y-109803734D01*
X182012005Y-109920714D01*
X181783712Y-110064161D01*
X181572915Y-110232265D01*
X181382265Y-110422915D01*
X181214161Y-110633712D01*
X181070714Y-110862005D01*
X180953734Y-111104917D01*
X180864687Y-111359397D01*
X180864684Y-111359405D01*
X180804688Y-111622268D01*
X180804686Y-111622280D01*
X180774500Y-111890186D01*
X180774500Y-112159813D01*
X180804686Y-112427719D01*
X180804688Y-112427731D01*
X180864684Y-112690594D01*
X180864687Y-112690602D01*
X180953734Y-112945082D01*
X181070714Y-113187994D01*
X181070716Y-113187997D01*
X181214162Y-113416289D01*
X181382266Y-113627085D01*
X181572915Y-113817734D01*
X181783711Y-113985838D01*
X182012003Y-114129284D01*
X182254921Y-114246267D01*
X182446049Y-114313145D01*
X182509397Y-114335312D01*
X182509405Y-114335315D01*
X182509408Y-114335315D01*
X182509409Y-114335316D01*
X182772268Y-114395312D01*
X183040187Y-114425499D01*
X183040188Y-114425500D01*
X183040191Y-114425500D01*
X183309812Y-114425500D01*
X183309812Y-114425499D01*
X183577732Y-114395312D01*
X183840591Y-114335316D01*
X184095079Y-114246267D01*
X184337997Y-114129284D01*
X184566289Y-113985838D01*
X184777085Y-113817734D01*
X184967734Y-113627085D01*
X185135838Y-113416289D01*
X185279284Y-113187997D01*
X185396267Y-112945079D01*
X185485316Y-112690591D01*
X185545312Y-112427732D01*
X185552280Y-112365894D01*
X185579347Y-112301480D01*
X185636941Y-112261925D01*
X185706778Y-112259788D01*
X185766685Y-112295746D01*
X185797640Y-112358384D01*
X185799500Y-112379778D01*
X185799500Y-114575500D01*
X185779815Y-114642539D01*
X185727011Y-114688294D01*
X185675500Y-114699500D01*
X143579778Y-114699500D01*
X143512739Y-114679815D01*
X143466984Y-114627011D01*
X143457040Y-114557853D01*
X143486065Y-114494297D01*
X143544843Y-114456523D01*
X143565894Y-114452280D01*
X143596480Y-114448833D01*
X143627732Y-114445312D01*
X143890591Y-114385316D01*
X144145079Y-114296267D01*
X144387997Y-114179284D01*
X144616289Y-114035838D01*
X144827085Y-113867734D01*
X145017734Y-113677085D01*
X145185838Y-113466289D01*
X145329284Y-113237997D01*
X145446267Y-112995079D01*
X145535316Y-112740591D01*
X145595312Y-112477732D01*
X145625500Y-112209809D01*
X145625500Y-111940191D01*
X145595312Y-111672268D01*
X145535316Y-111409409D01*
X145446267Y-111154921D01*
X145329284Y-110912003D01*
X145185838Y-110683711D01*
X145017734Y-110472915D01*
X144827085Y-110282266D01*
X144616289Y-110114162D01*
X144387997Y-109970716D01*
X144387994Y-109970714D01*
X144145082Y-109853734D01*
X143890602Y-109764687D01*
X143890594Y-109764684D01*
X143671527Y-109714684D01*
X143627732Y-109704688D01*
X143627728Y-109704687D01*
X143627719Y-109704686D01*
X143359813Y-109674500D01*
X143359809Y-109674500D01*
X143090191Y-109674500D01*
X143090186Y-109674500D01*
X142822280Y-109704686D01*
X142822268Y-109704688D01*
X142559405Y-109764684D01*
X142559397Y-109764687D01*
X142304917Y-109853734D01*
X142062005Y-109970714D01*
X141833712Y-110114161D01*
X141622915Y-110282265D01*
X141432265Y-110472915D01*
X141264161Y-110683712D01*
X141120714Y-110912005D01*
X141003734Y-111154917D01*
X140916541Y-111404099D01*
X140875820Y-111460875D01*
X140810867Y-111486622D01*
X140742305Y-111473166D01*
X140691902Y-111424778D01*
X140675500Y-111363144D01*
X140675500Y-107514778D01*
X147524500Y-107514778D01*
X147524500Y-107735222D01*
X147541742Y-107844086D01*
X147558985Y-107952952D01*
X147627103Y-108162603D01*
X147627104Y-108162606D01*
X147727187Y-108359025D01*
X147856752Y-108537358D01*
X147856756Y-108537363D01*
X148012636Y-108693243D01*
X148012641Y-108693247D01*
X148124727Y-108774682D01*
X148167393Y-108830011D01*
X148173372Y-108899625D01*
X148140767Y-108961420D01*
X148124727Y-108975318D01*
X148012641Y-109056752D01*
X148012636Y-109056756D01*
X147856756Y-109212636D01*
X147856752Y-109212641D01*
X147727187Y-109390974D01*
X147627104Y-109587393D01*
X147627103Y-109587396D01*
X147558985Y-109797047D01*
X147539398Y-109920714D01*
X147524500Y-110014778D01*
X147524500Y-110235222D01*
X147541742Y-110344086D01*
X147558985Y-110452952D01*
X147627103Y-110662603D01*
X147627104Y-110662606D01*
X147727187Y-110859025D01*
X147856752Y-111037358D01*
X147856756Y-111037363D01*
X148012636Y-111193243D01*
X148012641Y-111193247D01*
X148081461Y-111243247D01*
X148190978Y-111322815D01*
X148319375Y-111388237D01*
X148387393Y-111422895D01*
X148387396Y-111422896D01*
X148492221Y-111456955D01*
X148597049Y-111491015D01*
X148814778Y-111525500D01*
X148814779Y-111525500D01*
X149035221Y-111525500D01*
X149035222Y-111525500D01*
X149252951Y-111491015D01*
X149462606Y-111422895D01*
X149659022Y-111322815D01*
X149837365Y-111193242D01*
X149993242Y-111037365D01*
X150074682Y-110925270D01*
X150130011Y-110882606D01*
X150199624Y-110876627D01*
X150261420Y-110909232D01*
X150275313Y-110925265D01*
X150347972Y-111025272D01*
X150356758Y-111037365D01*
X150512636Y-111193243D01*
X150512641Y-111193247D01*
X150581461Y-111243247D01*
X150690978Y-111322815D01*
X150819375Y-111388237D01*
X150887393Y-111422895D01*
X150887396Y-111422896D01*
X150992221Y-111456955D01*
X151097049Y-111491015D01*
X151314778Y-111525500D01*
X151314779Y-111525500D01*
X151535221Y-111525500D01*
X151535222Y-111525500D01*
X151752951Y-111491015D01*
X151962606Y-111422895D01*
X152159022Y-111322815D01*
X152337365Y-111193242D01*
X152493242Y-111037365D01*
X152574682Y-110925270D01*
X152630011Y-110882606D01*
X152699624Y-110876627D01*
X152761420Y-110909232D01*
X152775313Y-110925265D01*
X152847972Y-111025272D01*
X152856758Y-111037365D01*
X153012636Y-111193243D01*
X153012641Y-111193247D01*
X153081461Y-111243247D01*
X153190978Y-111322815D01*
X153319375Y-111388237D01*
X153387393Y-111422895D01*
X153387396Y-111422896D01*
X153492221Y-111456955D01*
X153597049Y-111491015D01*
X153814778Y-111525500D01*
X153814779Y-111525500D01*
X154035221Y-111525500D01*
X154035222Y-111525500D01*
X154252951Y-111491015D01*
X154462606Y-111422895D01*
X154659022Y-111322815D01*
X154837365Y-111193242D01*
X154993242Y-111037365D01*
X155122815Y-110859022D01*
X155222895Y-110662606D01*
X155291015Y-110452951D01*
X155325500Y-110235222D01*
X155325500Y-110014778D01*
X155291015Y-109797049D01*
X155244759Y-109654686D01*
X155222896Y-109587396D01*
X155222895Y-109587393D01*
X155188237Y-109519375D01*
X155122815Y-109390978D01*
X155065896Y-109312635D01*
X154993247Y-109212641D01*
X154993243Y-109212636D01*
X154837359Y-109056752D01*
X154724846Y-108975008D01*
X154682180Y-108919679D01*
X154676201Y-108850065D01*
X154708806Y-108788270D01*
X154722486Y-108776416D01*
X154722514Y-108776066D01*
X154054409Y-108107962D01*
X154117993Y-108090925D01*
X154232007Y-108025099D01*
X154325099Y-107932007D01*
X154390925Y-107817993D01*
X154407962Y-107754410D01*
X155076066Y-108422514D01*
X155076066Y-108422513D01*
X155122386Y-108358760D01*
X155222432Y-108162410D01*
X155290526Y-107952835D01*
X155325000Y-107735181D01*
X155325000Y-107614778D01*
X159324500Y-107614778D01*
X159324500Y-107835222D01*
X159337610Y-107917993D01*
X159358985Y-108052952D01*
X159427103Y-108262603D01*
X159427104Y-108262606D01*
X159449523Y-108306604D01*
X159513725Y-108432606D01*
X159527187Y-108459025D01*
X159656752Y-108637358D01*
X159656756Y-108637363D01*
X159812636Y-108793243D01*
X159812641Y-108793247D01*
X159924727Y-108874682D01*
X159967393Y-108930011D01*
X159973372Y-108999625D01*
X159940767Y-109061420D01*
X159924727Y-109075318D01*
X159812641Y-109156752D01*
X159812636Y-109156756D01*
X159656756Y-109312636D01*
X159656752Y-109312641D01*
X159527187Y-109490974D01*
X159427104Y-109687393D01*
X159427103Y-109687396D01*
X159358985Y-109897047D01*
X159324500Y-110114778D01*
X159324500Y-110335221D01*
X159358985Y-110552952D01*
X159427103Y-110762603D01*
X159427104Y-110762606D01*
X159449523Y-110806604D01*
X159513725Y-110932606D01*
X159527187Y-110959025D01*
X159656752Y-111137358D01*
X159656756Y-111137363D01*
X159812636Y-111293243D01*
X159812641Y-111293247D01*
X159908847Y-111363144D01*
X159990978Y-111422815D01*
X160116205Y-111486622D01*
X160187393Y-111522895D01*
X160187396Y-111522896D01*
X160243159Y-111541014D01*
X160397049Y-111591015D01*
X160614778Y-111625500D01*
X160614779Y-111625500D01*
X160835221Y-111625500D01*
X160835222Y-111625500D01*
X161052951Y-111591015D01*
X161262606Y-111522895D01*
X161459022Y-111422815D01*
X161637365Y-111293242D01*
X161793242Y-111137365D01*
X161874682Y-111025270D01*
X161930011Y-110982606D01*
X161999624Y-110976627D01*
X162061420Y-111009232D01*
X162075313Y-111025265D01*
X162133186Y-111104921D01*
X162156758Y-111137365D01*
X162312636Y-111293243D01*
X162312641Y-111293247D01*
X162408847Y-111363144D01*
X162490978Y-111422815D01*
X162616205Y-111486622D01*
X162687393Y-111522895D01*
X162687396Y-111522896D01*
X162743159Y-111541014D01*
X162897049Y-111591015D01*
X163114778Y-111625500D01*
X163114779Y-111625500D01*
X163335221Y-111625500D01*
X163335222Y-111625500D01*
X163552951Y-111591015D01*
X163762606Y-111522895D01*
X163959022Y-111422815D01*
X164137365Y-111293242D01*
X164293242Y-111137365D01*
X164374682Y-111025270D01*
X164430011Y-110982606D01*
X164499624Y-110976627D01*
X164561420Y-111009232D01*
X164575313Y-111025265D01*
X164633186Y-111104921D01*
X164656758Y-111137365D01*
X164812636Y-111293243D01*
X164812641Y-111293247D01*
X164908847Y-111363144D01*
X164990978Y-111422815D01*
X165116205Y-111486622D01*
X165187393Y-111522895D01*
X165187396Y-111522896D01*
X165243159Y-111541014D01*
X165397049Y-111591015D01*
X165614778Y-111625500D01*
X165614779Y-111625500D01*
X165835221Y-111625500D01*
X165835222Y-111625500D01*
X166052951Y-111591015D01*
X166262606Y-111522895D01*
X166459022Y-111422815D01*
X166637365Y-111293242D01*
X166793242Y-111137365D01*
X166922815Y-110959022D01*
X167022895Y-110762606D01*
X167091015Y-110552951D01*
X167125500Y-110335222D01*
X167125500Y-110114778D01*
X167091015Y-109897049D01*
X167028514Y-109704688D01*
X167022896Y-109687396D01*
X167022895Y-109687393D01*
X166988237Y-109619375D01*
X166922815Y-109490978D01*
X166850161Y-109390978D01*
X166793247Y-109312641D01*
X166793243Y-109312636D01*
X166637359Y-109156752D01*
X166524846Y-109075008D01*
X166482180Y-109019679D01*
X166476201Y-108950065D01*
X166508806Y-108888270D01*
X166522486Y-108876416D01*
X166522514Y-108876066D01*
X165854409Y-108207962D01*
X165917993Y-108190925D01*
X166032007Y-108125099D01*
X166125099Y-108032007D01*
X166190925Y-107917993D01*
X166207962Y-107854410D01*
X166876066Y-108522514D01*
X166876066Y-108522513D01*
X166922386Y-108458760D01*
X167022432Y-108262410D01*
X167090526Y-108052835D01*
X167125000Y-107835181D01*
X167125000Y-107614818D01*
X167119375Y-107579304D01*
X167117074Y-107564778D01*
X171024500Y-107564778D01*
X171024500Y-107785222D01*
X171032413Y-107835181D01*
X171058985Y-108002952D01*
X171127103Y-108212603D01*
X171127104Y-108212606D01*
X171175000Y-108306604D01*
X171213725Y-108382606D01*
X171227187Y-108409025D01*
X171356752Y-108587358D01*
X171356756Y-108587363D01*
X171512636Y-108743243D01*
X171512641Y-108743247D01*
X171624727Y-108824682D01*
X171667393Y-108880011D01*
X171673372Y-108949625D01*
X171640767Y-109011420D01*
X171624727Y-109025318D01*
X171512641Y-109106752D01*
X171512636Y-109106756D01*
X171356756Y-109262636D01*
X171356752Y-109262641D01*
X171227187Y-109440974D01*
X171127104Y-109637393D01*
X171127103Y-109637396D01*
X171058985Y-109847047D01*
X171024500Y-110064778D01*
X171024500Y-110285221D01*
X171058985Y-110502952D01*
X171127103Y-110712603D01*
X171127104Y-110712606D01*
X171175000Y-110806604D01*
X171213725Y-110882606D01*
X171227187Y-110909025D01*
X171356752Y-111087358D01*
X171356756Y-111087363D01*
X171512636Y-111243243D01*
X171512641Y-111243247D01*
X171581461Y-111293247D01*
X171690978Y-111372815D01*
X171792960Y-111424778D01*
X171887393Y-111472895D01*
X171887396Y-111472896D01*
X171943159Y-111491014D01*
X172097049Y-111541015D01*
X172314778Y-111575500D01*
X172314779Y-111575500D01*
X172535221Y-111575500D01*
X172535222Y-111575500D01*
X172752951Y-111541015D01*
X172962606Y-111472895D01*
X173159022Y-111372815D01*
X173337365Y-111243242D01*
X173493242Y-111087365D01*
X173574682Y-110975270D01*
X173630011Y-110932606D01*
X173699624Y-110926627D01*
X173761420Y-110959232D01*
X173775313Y-110975265D01*
X173820426Y-111037358D01*
X173856758Y-111087365D01*
X174012636Y-111243243D01*
X174012641Y-111243247D01*
X174081461Y-111293247D01*
X174190978Y-111372815D01*
X174292960Y-111424778D01*
X174387393Y-111472895D01*
X174387396Y-111472896D01*
X174443159Y-111491014D01*
X174597049Y-111541015D01*
X174814778Y-111575500D01*
X174814779Y-111575500D01*
X175035221Y-111575500D01*
X175035222Y-111575500D01*
X175252951Y-111541015D01*
X175462606Y-111472895D01*
X175659022Y-111372815D01*
X175837365Y-111243242D01*
X175993242Y-111087365D01*
X176074682Y-110975270D01*
X176130011Y-110932606D01*
X176199624Y-110926627D01*
X176261420Y-110959232D01*
X176275313Y-110975265D01*
X176320426Y-111037358D01*
X176356758Y-111087365D01*
X176512636Y-111243243D01*
X176512641Y-111243247D01*
X176581461Y-111293247D01*
X176690978Y-111372815D01*
X176792960Y-111424778D01*
X176887393Y-111472895D01*
X176887396Y-111472896D01*
X176943159Y-111491014D01*
X177097049Y-111541015D01*
X177314778Y-111575500D01*
X177314779Y-111575500D01*
X177535221Y-111575500D01*
X177535222Y-111575500D01*
X177752951Y-111541015D01*
X177962606Y-111472895D01*
X178159022Y-111372815D01*
X178337365Y-111243242D01*
X178493242Y-111087365D01*
X178622815Y-110909022D01*
X178722895Y-110712606D01*
X178791015Y-110502951D01*
X178825500Y-110285222D01*
X178825500Y-110064778D01*
X178791015Y-109847049D01*
X178744759Y-109704686D01*
X178722896Y-109637396D01*
X178722895Y-109637393D01*
X178688237Y-109569375D01*
X178622815Y-109440978D01*
X178550008Y-109340767D01*
X178493247Y-109262641D01*
X178493243Y-109262636D01*
X178337359Y-109106752D01*
X178224846Y-109025008D01*
X178182180Y-108969679D01*
X178176201Y-108900065D01*
X178208806Y-108838270D01*
X178222486Y-108826416D01*
X178222514Y-108826066D01*
X177554409Y-108157962D01*
X177617993Y-108140925D01*
X177732007Y-108075099D01*
X177825099Y-107982007D01*
X177890925Y-107867993D01*
X177907962Y-107804409D01*
X178576066Y-108472514D01*
X178576066Y-108472513D01*
X178622386Y-108408760D01*
X178722432Y-108212410D01*
X178790526Y-108002835D01*
X178825000Y-107785181D01*
X178825000Y-107564818D01*
X178790526Y-107347164D01*
X178722432Y-107137589D01*
X178622388Y-106941243D01*
X178576066Y-106877485D01*
X178576065Y-106877485D01*
X177907962Y-107545589D01*
X177890925Y-107482007D01*
X177825099Y-107367993D01*
X177732007Y-107274901D01*
X177617993Y-107209075D01*
X177554407Y-107192037D01*
X178222513Y-106523932D01*
X178158756Y-106477611D01*
X177962410Y-106377567D01*
X177752835Y-106309473D01*
X177535181Y-106275000D01*
X177314819Y-106275000D01*
X177097164Y-106309473D01*
X176887589Y-106377567D01*
X176691233Y-106477616D01*
X176627485Y-106523931D01*
X176627485Y-106523932D01*
X177295590Y-107192037D01*
X177232007Y-107209075D01*
X177117993Y-107274901D01*
X177024901Y-107367993D01*
X176959075Y-107482007D01*
X176942037Y-107545590D01*
X176273932Y-106877485D01*
X176272448Y-106877602D01*
X176220296Y-106917817D01*
X176150682Y-106923796D01*
X176088887Y-106891190D01*
X176074990Y-106875151D01*
X175993247Y-106762641D01*
X175993243Y-106762636D01*
X175837363Y-106606756D01*
X175837358Y-106606752D01*
X175659025Y-106477187D01*
X175659024Y-106477186D01*
X175659022Y-106477185D01*
X175596096Y-106445122D01*
X175462606Y-106377104D01*
X175462603Y-106377103D01*
X175252952Y-106308985D01*
X175144086Y-106291742D01*
X175035222Y-106274500D01*
X174814778Y-106274500D01*
X174742201Y-106285995D01*
X174597047Y-106308985D01*
X174387396Y-106377103D01*
X174387393Y-106377104D01*
X174190974Y-106477187D01*
X174012641Y-106606752D01*
X174012636Y-106606756D01*
X173856756Y-106762636D01*
X173856752Y-106762641D01*
X173775318Y-106874727D01*
X173719989Y-106917393D01*
X173650375Y-106923372D01*
X173588580Y-106890767D01*
X173574682Y-106874727D01*
X173493247Y-106762641D01*
X173493243Y-106762636D01*
X173337363Y-106606756D01*
X173337358Y-106606752D01*
X173159025Y-106477187D01*
X173159024Y-106477186D01*
X173159022Y-106477185D01*
X173096096Y-106445122D01*
X172962606Y-106377104D01*
X172962603Y-106377103D01*
X172752952Y-106308985D01*
X172644086Y-106291742D01*
X172535222Y-106274500D01*
X172314778Y-106274500D01*
X172242201Y-106285995D01*
X172097047Y-106308985D01*
X171887396Y-106377103D01*
X171887393Y-106377104D01*
X171690974Y-106477187D01*
X171512641Y-106606752D01*
X171512636Y-106606756D01*
X171356756Y-106762636D01*
X171356752Y-106762641D01*
X171227187Y-106940974D01*
X171127104Y-107137393D01*
X171127103Y-107137396D01*
X171058985Y-107347047D01*
X171045529Y-107432007D01*
X171024500Y-107564778D01*
X167117074Y-107564778D01*
X167090526Y-107397164D01*
X167022432Y-107187589D01*
X166922388Y-106991243D01*
X166876066Y-106927485D01*
X166876065Y-106927485D01*
X166207962Y-107595589D01*
X166190925Y-107532007D01*
X166125099Y-107417993D01*
X166032007Y-107324901D01*
X165917993Y-107259075D01*
X165854407Y-107242037D01*
X166522513Y-106573932D01*
X166458756Y-106527611D01*
X166262410Y-106427567D01*
X166052835Y-106359473D01*
X165835181Y-106325000D01*
X165614819Y-106325000D01*
X165397164Y-106359473D01*
X165187589Y-106427567D01*
X164991233Y-106527616D01*
X164927485Y-106573931D01*
X164927485Y-106573932D01*
X165595590Y-107242037D01*
X165532007Y-107259075D01*
X165417993Y-107324901D01*
X165324901Y-107417993D01*
X165259075Y-107532007D01*
X165242037Y-107595590D01*
X164573932Y-106927485D01*
X164572448Y-106927602D01*
X164520296Y-106967817D01*
X164450682Y-106973796D01*
X164388887Y-106941190D01*
X164374990Y-106925151D01*
X164293247Y-106812641D01*
X164293243Y-106812636D01*
X164137363Y-106656756D01*
X164137358Y-106656752D01*
X163959025Y-106527187D01*
X163959024Y-106527186D01*
X163959022Y-106527185D01*
X163896096Y-106495122D01*
X163762606Y-106427104D01*
X163762603Y-106427103D01*
X163552952Y-106358985D01*
X163444086Y-106341742D01*
X163335222Y-106324500D01*
X163114778Y-106324500D01*
X163042201Y-106335995D01*
X162897047Y-106358985D01*
X162687396Y-106427103D01*
X162687393Y-106427104D01*
X162490974Y-106527187D01*
X162312641Y-106656752D01*
X162312636Y-106656756D01*
X162156756Y-106812636D01*
X162156752Y-106812641D01*
X162075318Y-106924727D01*
X162019989Y-106967393D01*
X161950375Y-106973372D01*
X161888580Y-106940767D01*
X161874682Y-106924727D01*
X161793247Y-106812641D01*
X161793243Y-106812636D01*
X161637363Y-106656756D01*
X161637358Y-106656752D01*
X161459025Y-106527187D01*
X161459024Y-106527186D01*
X161459022Y-106527185D01*
X161396096Y-106495122D01*
X161262606Y-106427104D01*
X161262603Y-106427103D01*
X161052952Y-106358985D01*
X160944086Y-106341742D01*
X160835222Y-106324500D01*
X160614778Y-106324500D01*
X160542201Y-106335995D01*
X160397047Y-106358985D01*
X160187396Y-106427103D01*
X160187393Y-106427104D01*
X159990974Y-106527187D01*
X159812641Y-106656752D01*
X159812636Y-106656756D01*
X159656756Y-106812636D01*
X159656752Y-106812641D01*
X159527187Y-106990974D01*
X159427104Y-107187393D01*
X159427103Y-107187396D01*
X159358985Y-107397047D01*
X159325388Y-107609174D01*
X159324500Y-107614778D01*
X155325000Y-107614778D01*
X155325000Y-107514818D01*
X155290526Y-107297164D01*
X155222432Y-107087589D01*
X155122388Y-106891243D01*
X155076066Y-106827485D01*
X155076065Y-106827485D01*
X154407962Y-107495589D01*
X154390925Y-107432007D01*
X154325099Y-107317993D01*
X154232007Y-107224901D01*
X154117993Y-107159075D01*
X154054407Y-107142037D01*
X154722513Y-106473932D01*
X154658756Y-106427611D01*
X154462410Y-106327567D01*
X154252835Y-106259473D01*
X154035181Y-106225000D01*
X153814819Y-106225000D01*
X153597164Y-106259473D01*
X153387589Y-106327567D01*
X153191233Y-106427616D01*
X153127485Y-106473931D01*
X153127485Y-106473932D01*
X153795590Y-107142037D01*
X153732007Y-107159075D01*
X153617993Y-107224901D01*
X153524901Y-107317993D01*
X153459075Y-107432007D01*
X153442037Y-107495590D01*
X152773932Y-106827485D01*
X152772448Y-106827602D01*
X152720296Y-106867817D01*
X152650682Y-106873796D01*
X152588887Y-106841190D01*
X152574990Y-106825151D01*
X152493247Y-106712641D01*
X152493243Y-106712636D01*
X152337363Y-106556756D01*
X152337358Y-106556752D01*
X152159025Y-106427187D01*
X152159024Y-106427186D01*
X152159022Y-106427185D01*
X152096096Y-106395122D01*
X151962606Y-106327104D01*
X151962603Y-106327103D01*
X151752952Y-106258985D01*
X151644086Y-106241742D01*
X151535222Y-106224500D01*
X151314778Y-106224500D01*
X151242201Y-106235995D01*
X151097047Y-106258985D01*
X150887396Y-106327103D01*
X150887393Y-106327104D01*
X150690974Y-106427187D01*
X150512641Y-106556752D01*
X150512636Y-106556756D01*
X150356756Y-106712636D01*
X150356752Y-106712641D01*
X150275318Y-106824727D01*
X150219989Y-106867393D01*
X150150375Y-106873372D01*
X150088580Y-106840767D01*
X150074682Y-106824727D01*
X149993247Y-106712641D01*
X149993243Y-106712636D01*
X149837363Y-106556756D01*
X149837358Y-106556752D01*
X149659025Y-106427187D01*
X149659024Y-106427186D01*
X149659022Y-106427185D01*
X149596096Y-106395122D01*
X149462606Y-106327104D01*
X149462603Y-106327103D01*
X149252952Y-106258985D01*
X149144086Y-106241742D01*
X149035222Y-106224500D01*
X148814778Y-106224500D01*
X148742201Y-106235995D01*
X148597047Y-106258985D01*
X148387396Y-106327103D01*
X148387393Y-106327104D01*
X148190974Y-106427187D01*
X148012641Y-106556752D01*
X148012636Y-106556756D01*
X147856756Y-106712636D01*
X147856752Y-106712641D01*
X147727187Y-106890974D01*
X147627104Y-107087393D01*
X147627103Y-107087396D01*
X147558985Y-107297047D01*
X147543128Y-107397164D01*
X147524500Y-107514778D01*
X140675500Y-107514778D01*
X140675500Y-102093713D01*
X152824500Y-102093713D01*
X152824500Y-102306286D01*
X152857753Y-102516239D01*
X152923444Y-102718414D01*
X153019951Y-102907820D01*
X153144890Y-103079786D01*
X153295213Y-103230109D01*
X153467179Y-103355048D01*
X153467181Y-103355049D01*
X153467184Y-103355051D01*
X153656588Y-103451557D01*
X153858757Y-103517246D01*
X154068713Y-103550500D01*
X154068714Y-103550500D01*
X154281286Y-103550500D01*
X154281287Y-103550500D01*
X154491243Y-103517246D01*
X154693412Y-103451557D01*
X154882816Y-103355051D01*
X154969478Y-103292088D01*
X155054784Y-103230110D01*
X155054784Y-103230109D01*
X155054792Y-103230104D01*
X155168717Y-103116178D01*
X155230036Y-103082696D01*
X155299728Y-103087680D01*
X155355662Y-103129551D01*
X155372577Y-103160528D01*
X155421646Y-103292088D01*
X155421649Y-103292093D01*
X155507809Y-103407187D01*
X155507812Y-103407190D01*
X155622906Y-103493350D01*
X155622913Y-103493354D01*
X155757620Y-103543596D01*
X155757627Y-103543598D01*
X155817155Y-103549999D01*
X155817172Y-103550000D01*
X156465000Y-103550000D01*
X156465000Y-102633012D01*
X156522007Y-102665925D01*
X156649174Y-102700000D01*
X156780826Y-102700000D01*
X156907993Y-102665925D01*
X156965000Y-102633012D01*
X156965000Y-103550000D01*
X157612828Y-103550000D01*
X157612844Y-103549999D01*
X157672372Y-103543598D01*
X157672379Y-103543596D01*
X157807086Y-103493354D01*
X157807093Y-103493350D01*
X157922187Y-103407190D01*
X157922190Y-103407187D01*
X158008350Y-103292093D01*
X158008354Y-103292086D01*
X158058596Y-103157379D01*
X158058598Y-103157372D01*
X158064999Y-103097844D01*
X158065000Y-103097827D01*
X158065000Y-102450000D01*
X157148012Y-102450000D01*
X157180925Y-102392993D01*
X157215000Y-102265826D01*
X157215000Y-102218713D01*
X165134500Y-102218713D01*
X165134500Y-102431287D01*
X165167754Y-102641243D01*
X165192828Y-102718414D01*
X165233444Y-102843414D01*
X165329951Y-103032820D01*
X165454890Y-103204786D01*
X165605213Y-103355109D01*
X165777179Y-103480048D01*
X165777181Y-103480049D01*
X165777184Y-103480051D01*
X165966588Y-103576557D01*
X166168757Y-103642246D01*
X166378713Y-103675500D01*
X166378714Y-103675500D01*
X166591286Y-103675500D01*
X166591287Y-103675500D01*
X166801243Y-103642246D01*
X167003412Y-103576557D01*
X167192816Y-103480051D01*
X167232038Y-103451555D01*
X167364786Y-103355109D01*
X167364788Y-103355106D01*
X167364792Y-103355104D01*
X167515104Y-103204792D01*
X167515106Y-103204788D01*
X167515109Y-103204786D01*
X167640048Y-103032820D01*
X167640047Y-103032820D01*
X167640051Y-103032816D01*
X167644514Y-103024054D01*
X167692488Y-102973259D01*
X167760308Y-102956463D01*
X167826444Y-102978999D01*
X167865486Y-103024056D01*
X167869951Y-103032820D01*
X167994890Y-103204786D01*
X168145213Y-103355109D01*
X168317179Y-103480048D01*
X168317181Y-103480049D01*
X168317184Y-103480051D01*
X168506588Y-103576557D01*
X168708757Y-103642246D01*
X168918713Y-103675500D01*
X168918714Y-103675500D01*
X169131286Y-103675500D01*
X169131287Y-103675500D01*
X169341243Y-103642246D01*
X169543412Y-103576557D01*
X169732816Y-103480051D01*
X169772038Y-103451555D01*
X169904786Y-103355109D01*
X169904788Y-103355106D01*
X169904792Y-103355104D01*
X170055104Y-103204792D01*
X170055106Y-103204788D01*
X170055109Y-103204786D01*
X170180048Y-103032820D01*
X170180047Y-103032820D01*
X170180051Y-103032816D01*
X170184514Y-103024054D01*
X170232488Y-102973259D01*
X170300308Y-102956463D01*
X170366444Y-102978999D01*
X170405486Y-103024056D01*
X170409951Y-103032820D01*
X170534890Y-103204786D01*
X170685213Y-103355109D01*
X170857179Y-103480048D01*
X170857181Y-103480049D01*
X170857184Y-103480051D01*
X171046588Y-103576557D01*
X171248757Y-103642246D01*
X171458713Y-103675500D01*
X171458714Y-103675500D01*
X171671286Y-103675500D01*
X171671287Y-103675500D01*
X171881243Y-103642246D01*
X172083412Y-103576557D01*
X172272816Y-103480051D01*
X172312038Y-103451555D01*
X172444786Y-103355109D01*
X172444788Y-103355106D01*
X172444792Y-103355104D01*
X172595104Y-103204792D01*
X172595106Y-103204788D01*
X172595109Y-103204786D01*
X172720048Y-103032820D01*
X172720047Y-103032820D01*
X172720051Y-103032816D01*
X172816557Y-102843412D01*
X172882246Y-102641243D01*
X172915500Y-102431287D01*
X172915500Y-102218713D01*
X172882246Y-102008757D01*
X172816557Y-101806588D01*
X172720051Y-101617184D01*
X172720049Y-101617181D01*
X172720048Y-101617179D01*
X172595109Y-101445213D01*
X172444786Y-101294890D01*
X172272820Y-101169951D01*
X172083414Y-101073444D01*
X172083413Y-101073443D01*
X172083412Y-101073443D01*
X171881243Y-101007754D01*
X171881241Y-101007753D01*
X171881240Y-101007753D01*
X171719957Y-100982208D01*
X171671287Y-100974500D01*
X171458713Y-100974500D01*
X171410042Y-100982208D01*
X171248760Y-101007753D01*
X171046585Y-101073444D01*
X170857179Y-101169951D01*
X170685213Y-101294890D01*
X170534890Y-101445213D01*
X170409949Y-101617182D01*
X170405484Y-101625946D01*
X170357509Y-101676742D01*
X170289688Y-101693536D01*
X170223553Y-101670998D01*
X170184516Y-101625946D01*
X170180050Y-101617182D01*
X170055109Y-101445213D01*
X169904786Y-101294890D01*
X169732820Y-101169951D01*
X169543414Y-101073444D01*
X169543413Y-101073443D01*
X169543412Y-101073443D01*
X169341243Y-101007754D01*
X169341241Y-101007753D01*
X169341240Y-101007753D01*
X169179957Y-100982208D01*
X169131287Y-100974500D01*
X168918713Y-100974500D01*
X168870042Y-100982208D01*
X168708760Y-101007753D01*
X168506585Y-101073444D01*
X168317179Y-101169951D01*
X168145213Y-101294890D01*
X167994890Y-101445213D01*
X167869949Y-101617182D01*
X167865484Y-101625946D01*
X167817509Y-101676742D01*
X167749688Y-101693536D01*
X167683553Y-101670998D01*
X167644516Y-101625946D01*
X167640050Y-101617182D01*
X167515109Y-101445213D01*
X167364786Y-101294890D01*
X167192820Y-101169951D01*
X167003414Y-101073444D01*
X167003413Y-101073443D01*
X167003412Y-101073443D01*
X166801243Y-101007754D01*
X166801241Y-101007753D01*
X166801240Y-101007753D01*
X166639957Y-100982208D01*
X166591287Y-100974500D01*
X166378713Y-100974500D01*
X166330042Y-100982208D01*
X166168760Y-101007753D01*
X165966585Y-101073444D01*
X165777179Y-101169951D01*
X165605213Y-101294890D01*
X165454890Y-101445213D01*
X165329951Y-101617179D01*
X165233444Y-101806585D01*
X165167753Y-102008760D01*
X165154298Y-102093713D01*
X165134500Y-102218713D01*
X157215000Y-102218713D01*
X157215000Y-102134174D01*
X157180925Y-102007007D01*
X157148012Y-101950000D01*
X158065000Y-101950000D01*
X158065000Y-101302172D01*
X158064999Y-101302155D01*
X158058598Y-101242627D01*
X158058596Y-101242620D01*
X158008354Y-101107913D01*
X158008350Y-101107906D01*
X157922190Y-100992812D01*
X157922187Y-100992809D01*
X157807093Y-100906649D01*
X157807086Y-100906645D01*
X157672379Y-100856403D01*
X157672372Y-100856401D01*
X157612844Y-100850000D01*
X156965000Y-100850000D01*
X156965000Y-101766988D01*
X156907993Y-101734075D01*
X156780826Y-101700000D01*
X156649174Y-101700000D01*
X156522007Y-101734075D01*
X156465000Y-101766988D01*
X156465000Y-100850000D01*
X155817155Y-100850000D01*
X155757627Y-100856401D01*
X155757620Y-100856403D01*
X155622913Y-100906645D01*
X155622906Y-100906649D01*
X155507812Y-100992809D01*
X155507809Y-100992812D01*
X155421649Y-101107906D01*
X155421646Y-101107912D01*
X155372577Y-101239471D01*
X155330705Y-101295404D01*
X155265241Y-101319821D01*
X155196968Y-101304969D01*
X155168714Y-101283818D01*
X155054786Y-101169890D01*
X154882820Y-101044951D01*
X154693414Y-100948444D01*
X154693413Y-100948443D01*
X154693412Y-100948443D01*
X154491243Y-100882754D01*
X154491241Y-100882753D01*
X154491240Y-100882753D01*
X154329957Y-100857208D01*
X154281287Y-100849500D01*
X154068713Y-100849500D01*
X154020042Y-100857208D01*
X153858760Y-100882753D01*
X153656585Y-100948444D01*
X153467179Y-101044951D01*
X153295213Y-101169890D01*
X153144890Y-101320213D01*
X153019951Y-101492179D01*
X152923444Y-101681585D01*
X152857753Y-101883760D01*
X152824500Y-102093713D01*
X140675500Y-102093713D01*
X140675500Y-93961855D01*
X140695185Y-93894816D01*
X140747989Y-93849061D01*
X140817147Y-93839117D01*
X140880703Y-93868142D01*
X140916541Y-93920900D01*
X141003734Y-94170082D01*
X141120714Y-94412994D01*
X141120716Y-94412997D01*
X141264162Y-94641289D01*
X141432266Y-94852085D01*
X141622915Y-95042734D01*
X141833711Y-95210838D01*
X142062003Y-95354284D01*
X142304921Y-95471267D01*
X142496049Y-95538145D01*
X142559397Y-95560312D01*
X142559405Y-95560315D01*
X142559408Y-95560315D01*
X142559409Y-95560316D01*
X142822268Y-95620312D01*
X143090187Y-95650499D01*
X143090188Y-95650500D01*
X143090191Y-95650500D01*
X143359812Y-95650500D01*
X143359812Y-95650499D01*
X143627732Y-95620312D01*
X143890591Y-95560316D01*
X144145079Y-95471267D01*
X144387997Y-95354284D01*
X144616289Y-95210838D01*
X144827085Y-95042734D01*
X144859561Y-95010258D01*
X151074500Y-95010258D01*
X151074500Y-95239741D01*
X151082998Y-95304284D01*
X151104452Y-95467238D01*
X151153556Y-95650499D01*
X151163842Y-95688887D01*
X151251650Y-95900876D01*
X151251657Y-95900890D01*
X151366392Y-96099617D01*
X151506081Y-96281661D01*
X151506089Y-96281670D01*
X151668330Y-96443911D01*
X151668338Y-96443918D01*
X151850382Y-96583607D01*
X151850385Y-96583608D01*
X151850388Y-96583611D01*
X152049112Y-96698344D01*
X152049117Y-96698346D01*
X152049123Y-96698349D01*
X152130816Y-96732187D01*
X152261113Y-96786158D01*
X152482762Y-96845548D01*
X152699312Y-96874057D01*
X152706460Y-96874999D01*
X152710266Y-96875500D01*
X152710273Y-96875500D01*
X152939727Y-96875500D01*
X152939734Y-96875500D01*
X153167238Y-96845548D01*
X153388887Y-96786158D01*
X153600888Y-96698344D01*
X153799612Y-96583611D01*
X153981661Y-96443919D01*
X153981665Y-96443914D01*
X153981670Y-96443911D01*
X154143911Y-96281670D01*
X154143914Y-96281665D01*
X154143919Y-96281661D01*
X154283611Y-96099612D01*
X154398344Y-95900888D01*
X154486158Y-95688887D01*
X154545548Y-95467238D01*
X154575500Y-95239734D01*
X154575500Y-95010266D01*
X154545548Y-94782762D01*
X154486158Y-94561113D01*
X154424805Y-94412994D01*
X154398349Y-94349123D01*
X154398346Y-94349117D01*
X154398344Y-94349112D01*
X154283611Y-94150388D01*
X154283608Y-94150385D01*
X154283607Y-94150382D01*
X154143918Y-93968338D01*
X154143911Y-93968330D01*
X154002736Y-93827155D01*
X156075000Y-93827155D01*
X156075000Y-94875000D01*
X157224999Y-94875000D01*
X157199979Y-94935402D01*
X157175000Y-95060981D01*
X157175000Y-95189019D01*
X157199979Y-95314598D01*
X157224999Y-95375000D01*
X156075000Y-95375000D01*
X156075000Y-96422844D01*
X156081401Y-96482372D01*
X156081403Y-96482379D01*
X156131645Y-96617086D01*
X156131649Y-96617093D01*
X156217809Y-96732187D01*
X156217812Y-96732190D01*
X156332906Y-96818350D01*
X156332913Y-96818354D01*
X156467620Y-96868596D01*
X156467627Y-96868598D01*
X156527155Y-96874999D01*
X156527172Y-96875000D01*
X157575000Y-96875000D01*
X157575000Y-95725001D01*
X157635402Y-95750021D01*
X157760981Y-95775000D01*
X157889019Y-95775000D01*
X158014598Y-95750021D01*
X158075000Y-95725001D01*
X158075000Y-96875000D01*
X159122828Y-96875000D01*
X159122844Y-96874999D01*
X159182372Y-96868598D01*
X159182379Y-96868596D01*
X159317086Y-96818354D01*
X159317093Y-96818350D01*
X159432187Y-96732190D01*
X159432190Y-96732187D01*
X159518350Y-96617093D01*
X159518354Y-96617086D01*
X159568596Y-96482379D01*
X159568598Y-96482372D01*
X159574999Y-96422844D01*
X159575000Y-96422827D01*
X159575000Y-95375000D01*
X158425001Y-95375000D01*
X158450021Y-95314598D01*
X158475000Y-95189019D01*
X158475000Y-95060981D01*
X158464911Y-95010258D01*
X162274500Y-95010258D01*
X162274500Y-95239741D01*
X162282998Y-95304284D01*
X162304452Y-95467238D01*
X162353556Y-95650499D01*
X162363842Y-95688887D01*
X162451650Y-95900876D01*
X162451657Y-95900890D01*
X162566392Y-96099617D01*
X162706081Y-96281661D01*
X162706089Y-96281670D01*
X162868330Y-96443911D01*
X162868338Y-96443918D01*
X163050382Y-96583607D01*
X163050385Y-96583608D01*
X163050388Y-96583611D01*
X163249112Y-96698344D01*
X163249117Y-96698346D01*
X163249123Y-96698349D01*
X163330816Y-96732187D01*
X163461113Y-96786158D01*
X163682762Y-96845548D01*
X163899312Y-96874057D01*
X163906460Y-96874999D01*
X163910266Y-96875500D01*
X163910273Y-96875500D01*
X164139727Y-96875500D01*
X164139734Y-96875500D01*
X164367238Y-96845548D01*
X164588887Y-96786158D01*
X164800888Y-96698344D01*
X164999612Y-96583611D01*
X165181661Y-96443919D01*
X165181665Y-96443914D01*
X165181670Y-96443911D01*
X165343911Y-96281670D01*
X165343914Y-96281665D01*
X165343919Y-96281661D01*
X165483611Y-96099612D01*
X165598344Y-95900888D01*
X165686158Y-95688887D01*
X165745548Y-95467238D01*
X165775500Y-95239734D01*
X165775500Y-95010266D01*
X165775499Y-95010258D01*
X167274500Y-95010258D01*
X167274500Y-95239741D01*
X167282998Y-95304284D01*
X167304452Y-95467238D01*
X167353556Y-95650499D01*
X167363842Y-95688887D01*
X167451650Y-95900876D01*
X167451657Y-95900890D01*
X167566392Y-96099617D01*
X167706081Y-96281661D01*
X167706089Y-96281670D01*
X167868330Y-96443911D01*
X167868338Y-96443918D01*
X168050382Y-96583607D01*
X168050385Y-96583608D01*
X168050388Y-96583611D01*
X168249112Y-96698344D01*
X168249117Y-96698346D01*
X168249123Y-96698349D01*
X168330816Y-96732187D01*
X168461113Y-96786158D01*
X168682762Y-96845548D01*
X168899312Y-96874057D01*
X168906460Y-96874999D01*
X168910266Y-96875500D01*
X168910273Y-96875500D01*
X169139727Y-96875500D01*
X169139734Y-96875500D01*
X169367238Y-96845548D01*
X169588887Y-96786158D01*
X169800888Y-96698344D01*
X169999612Y-96583611D01*
X170181661Y-96443919D01*
X170181665Y-96443914D01*
X170181670Y-96443911D01*
X170343911Y-96281670D01*
X170343914Y-96281665D01*
X170343919Y-96281661D01*
X170483611Y-96099612D01*
X170598344Y-95900888D01*
X170686158Y-95688887D01*
X170745548Y-95467238D01*
X170775500Y-95239734D01*
X170775500Y-95010266D01*
X170775499Y-95010258D01*
X172274500Y-95010258D01*
X172274500Y-95239741D01*
X172282998Y-95304284D01*
X172304452Y-95467238D01*
X172353556Y-95650499D01*
X172363842Y-95688887D01*
X172451650Y-95900876D01*
X172451657Y-95900890D01*
X172566392Y-96099617D01*
X172706081Y-96281661D01*
X172706089Y-96281670D01*
X172868330Y-96443911D01*
X172868338Y-96443918D01*
X173050382Y-96583607D01*
X173050385Y-96583608D01*
X173050388Y-96583611D01*
X173249112Y-96698344D01*
X173249117Y-96698346D01*
X173249123Y-96698349D01*
X173330816Y-96732187D01*
X173461113Y-96786158D01*
X173682762Y-96845548D01*
X173899312Y-96874057D01*
X173906460Y-96874999D01*
X173910266Y-96875500D01*
X173910273Y-96875500D01*
X174139727Y-96875500D01*
X174139734Y-96875500D01*
X174367238Y-96845548D01*
X174588887Y-96786158D01*
X174800888Y-96698344D01*
X174999612Y-96583611D01*
X175181661Y-96443919D01*
X175181665Y-96443914D01*
X175181670Y-96443911D01*
X175343911Y-96281670D01*
X175343914Y-96281665D01*
X175343919Y-96281661D01*
X175483611Y-96099612D01*
X175598344Y-95900888D01*
X175686158Y-95688887D01*
X175745548Y-95467238D01*
X175775500Y-95239734D01*
X175775500Y-95010266D01*
X175745548Y-94782762D01*
X175686158Y-94561113D01*
X175624805Y-94412994D01*
X175598349Y-94349123D01*
X175598346Y-94349117D01*
X175598344Y-94349112D01*
X175483611Y-94150388D01*
X175483608Y-94150385D01*
X175483607Y-94150382D01*
X175343918Y-93968338D01*
X175343911Y-93968330D01*
X175181670Y-93806089D01*
X175181661Y-93806081D01*
X174999617Y-93666392D01*
X174975955Y-93652731D01*
X174800888Y-93551656D01*
X174800876Y-93551650D01*
X174588887Y-93463842D01*
X174367238Y-93404452D01*
X174329215Y-93399446D01*
X174139741Y-93374500D01*
X174139734Y-93374500D01*
X173910266Y-93374500D01*
X173910258Y-93374500D01*
X173693715Y-93403009D01*
X173682762Y-93404452D01*
X173589076Y-93429554D01*
X173461112Y-93463842D01*
X173249123Y-93551650D01*
X173249109Y-93551657D01*
X173050382Y-93666392D01*
X172868338Y-93806081D01*
X172706081Y-93968338D01*
X172566392Y-94150382D01*
X172451657Y-94349109D01*
X172451650Y-94349123D01*
X172363842Y-94561112D01*
X172304453Y-94782759D01*
X172304451Y-94782770D01*
X172274500Y-95010258D01*
X170775499Y-95010258D01*
X170745548Y-94782762D01*
X170686158Y-94561113D01*
X170624805Y-94412994D01*
X170598349Y-94349123D01*
X170598346Y-94349117D01*
X170598344Y-94349112D01*
X170483611Y-94150388D01*
X170483608Y-94150385D01*
X170483607Y-94150382D01*
X170343918Y-93968338D01*
X170343911Y-93968330D01*
X170181670Y-93806089D01*
X170181661Y-93806081D01*
X169999617Y-93666392D01*
X169975955Y-93652731D01*
X169800888Y-93551656D01*
X169800876Y-93551650D01*
X169588887Y-93463842D01*
X169367238Y-93404452D01*
X169329215Y-93399446D01*
X169139741Y-93374500D01*
X169139734Y-93374500D01*
X168910266Y-93374500D01*
X168910258Y-93374500D01*
X168693715Y-93403009D01*
X168682762Y-93404452D01*
X168589076Y-93429554D01*
X168461112Y-93463842D01*
X168249123Y-93551650D01*
X168249109Y-93551657D01*
X168050382Y-93666392D01*
X167868338Y-93806081D01*
X167706081Y-93968338D01*
X167566392Y-94150382D01*
X167451657Y-94349109D01*
X167451650Y-94349123D01*
X167363842Y-94561112D01*
X167304453Y-94782759D01*
X167304451Y-94782770D01*
X167274500Y-95010258D01*
X165775499Y-95010258D01*
X165745548Y-94782762D01*
X165686158Y-94561113D01*
X165624805Y-94412994D01*
X165598349Y-94349123D01*
X165598346Y-94349117D01*
X165598344Y-94349112D01*
X165483611Y-94150388D01*
X165483608Y-94150385D01*
X165483607Y-94150382D01*
X165343918Y-93968338D01*
X165343911Y-93968330D01*
X165181670Y-93806089D01*
X165181661Y-93806081D01*
X164999617Y-93666392D01*
X164975955Y-93652731D01*
X164800888Y-93551656D01*
X164800876Y-93551650D01*
X164588887Y-93463842D01*
X164367238Y-93404452D01*
X164329215Y-93399446D01*
X164139741Y-93374500D01*
X164139734Y-93374500D01*
X163910266Y-93374500D01*
X163910258Y-93374500D01*
X163693715Y-93403009D01*
X163682762Y-93404452D01*
X163589076Y-93429554D01*
X163461112Y-93463842D01*
X163249123Y-93551650D01*
X163249109Y-93551657D01*
X163050382Y-93666392D01*
X162868338Y-93806081D01*
X162706081Y-93968338D01*
X162566392Y-94150382D01*
X162451657Y-94349109D01*
X162451650Y-94349123D01*
X162363842Y-94561112D01*
X162304453Y-94782759D01*
X162304451Y-94782770D01*
X162274500Y-95010258D01*
X158464911Y-95010258D01*
X158450021Y-94935402D01*
X158425001Y-94875000D01*
X159575000Y-94875000D01*
X159575000Y-93827172D01*
X159574999Y-93827155D01*
X159568598Y-93767627D01*
X159568596Y-93767620D01*
X159518354Y-93632913D01*
X159518350Y-93632906D01*
X159432190Y-93517812D01*
X159432187Y-93517809D01*
X159317093Y-93431649D01*
X159317086Y-93431645D01*
X159182379Y-93381403D01*
X159182372Y-93381401D01*
X159122844Y-93375000D01*
X158075000Y-93375000D01*
X158075000Y-94524998D01*
X158014598Y-94499979D01*
X157889019Y-94475000D01*
X157760981Y-94475000D01*
X157635402Y-94499979D01*
X157575000Y-94524998D01*
X157575000Y-93375000D01*
X156527155Y-93375000D01*
X156467627Y-93381401D01*
X156467620Y-93381403D01*
X156332913Y-93431645D01*
X156332906Y-93431649D01*
X156217812Y-93517809D01*
X156217809Y-93517812D01*
X156131649Y-93632906D01*
X156131645Y-93632913D01*
X156081403Y-93767620D01*
X156081401Y-93767627D01*
X156075000Y-93827155D01*
X154002736Y-93827155D01*
X153981670Y-93806089D01*
X153981661Y-93806081D01*
X153799617Y-93666392D01*
X153775955Y-93652731D01*
X153600888Y-93551656D01*
X153600876Y-93551650D01*
X153388887Y-93463842D01*
X153167238Y-93404452D01*
X153129215Y-93399446D01*
X152939741Y-93374500D01*
X152939734Y-93374500D01*
X152710266Y-93374500D01*
X152710258Y-93374500D01*
X152493715Y-93403009D01*
X152482762Y-93404452D01*
X152389076Y-93429554D01*
X152261112Y-93463842D01*
X152049123Y-93551650D01*
X152049109Y-93551657D01*
X151850382Y-93666392D01*
X151668338Y-93806081D01*
X151506081Y-93968338D01*
X151366392Y-94150382D01*
X151251657Y-94349109D01*
X151251650Y-94349123D01*
X151163842Y-94561112D01*
X151104453Y-94782759D01*
X151104451Y-94782770D01*
X151074500Y-95010258D01*
X144859561Y-95010258D01*
X145017734Y-94852085D01*
X145185838Y-94641289D01*
X145329284Y-94412997D01*
X145446267Y-94170079D01*
X145535316Y-93915591D01*
X145595312Y-93652732D01*
X145625500Y-93384809D01*
X145625500Y-93115191D01*
X145595312Y-92847268D01*
X145535316Y-92584409D01*
X145446267Y-92329921D01*
X145329284Y-92087003D01*
X145185838Y-91858711D01*
X145017734Y-91647915D01*
X144827085Y-91457266D01*
X144616289Y-91289162D01*
X144387997Y-91145716D01*
X144387994Y-91145714D01*
X144145082Y-91028734D01*
X143890602Y-90939687D01*
X143890594Y-90939684D01*
X143671527Y-90889684D01*
X143627732Y-90879688D01*
X143627728Y-90879687D01*
X143627719Y-90879686D01*
X143359813Y-90849500D01*
X143359809Y-90849500D01*
X143090191Y-90849500D01*
X143090186Y-90849500D01*
X142822280Y-90879686D01*
X142822268Y-90879688D01*
X142559405Y-90939684D01*
X142559397Y-90939687D01*
X142304917Y-91028734D01*
X142062005Y-91145714D01*
X141833712Y-91289161D01*
X141622915Y-91457265D01*
X141432265Y-91647915D01*
X141264161Y-91858712D01*
X141120714Y-92087005D01*
X141003734Y-92329917D01*
X140916541Y-92579099D01*
X140875820Y-92635875D01*
X140810867Y-92661622D01*
X140742305Y-92648166D01*
X140691902Y-92599778D01*
X140675500Y-92538144D01*
X140675500Y-90649500D01*
X140695185Y-90582461D01*
X140747989Y-90536706D01*
X140799500Y-90525500D01*
X185675500Y-90525500D01*
X185742539Y-90545185D01*
G37*
G04 #@! TD.AperFunction*
M02*
