G04 #@! TF.GenerationSoftware,KiCad,Pcbnew,9.0.1*
G04 #@! TF.CreationDate,2025-04-21T21:40:15+02:00*
G04 #@! TF.ProjectId,3_pots_pcb_v0.2a,335f706f-7473-45f7-9063-625f76302e32,rev?*
G04 #@! TF.SameCoordinates,Original*
G04 #@! TF.FileFunction,Copper,L1,Top*
G04 #@! TF.FilePolarity,Positive*
%FSLAX46Y46*%
G04 Gerber Fmt 4.6, Leading zero omitted, Abs format (unit mm)*
G04 Created by KiCad (PCBNEW 9.0.1) date 2025-04-21 21:40:15*
%MOMM*%
%LPD*%
G01*
G04 APERTURE LIST*
G04 #@! TA.AperFunction,ComponentPad*
%ADD10C,1.800000*%
G04 #@! TD*
G04 #@! TA.AperFunction,ComponentPad*
%ADD11C,2.500000*%
G04 #@! TD*
G04 #@! TA.AperFunction,ComponentPad*
%ADD12R,2.500000X2.500000*%
G04 #@! TD*
G04 #@! TA.AperFunction,ComponentPad*
%ADD13C,3.800000*%
G04 #@! TD*
G04 #@! TA.AperFunction,ComponentPad*
%ADD14C,1.700000*%
G04 #@! TD*
G04 #@! TA.AperFunction,ComponentPad*
%ADD15R,1.700000X1.700000*%
G04 #@! TD*
G04 #@! TA.AperFunction,Conductor*
%ADD16C,0.200000*%
G04 #@! TD*
G04 APERTURE END LIST*
D10*
X148925000Y-110125000D03*
X151425000Y-110125000D03*
X153925000Y-110125000D03*
X148925000Y-107625000D03*
X151425000Y-107625000D03*
X153925000Y-107625000D03*
X160725000Y-110225000D03*
X163225000Y-110225000D03*
X165725000Y-110225000D03*
X160725000Y-107725000D03*
X163225000Y-107725000D03*
X165725000Y-107725000D03*
X172425000Y-110175000D03*
X174925000Y-110175000D03*
X177425000Y-110175000D03*
X172425000Y-107675000D03*
X174925000Y-107675000D03*
X177425000Y-107675000D03*
D11*
X152825000Y-95125000D03*
D12*
X157825000Y-95125000D03*
D13*
X143225000Y-93250000D03*
X183175000Y-112025000D03*
X183200000Y-93200000D03*
D14*
X154175000Y-102200000D03*
D15*
X156715000Y-102200000D03*
D13*
X143225000Y-112075000D03*
D14*
X166485000Y-102325000D03*
X169025000Y-102325000D03*
X171565000Y-102325000D03*
D11*
X164025000Y-95125000D03*
X169025000Y-95125000D03*
X174025000Y-95125000D03*
D16*
X159624000Y-108826000D02*
X160725000Y-107725000D01*
X154175000Y-102200000D02*
X154175000Y-102375000D01*
X154175000Y-102375000D02*
X148925000Y-107625000D01*
X171174000Y-108926000D02*
X172425000Y-107675000D01*
X160725000Y-107725000D02*
X161926000Y-108926000D01*
X148925000Y-107625000D02*
X150126000Y-108826000D01*
X152825000Y-95125000D02*
X154175000Y-96475000D01*
X150126000Y-108826000D02*
X159624000Y-108826000D01*
X161926000Y-108926000D02*
X171174000Y-108926000D01*
X154175000Y-96475000D02*
X154175000Y-102200000D01*
X163225000Y-107725000D02*
X163325000Y-107825000D01*
X169025000Y-95125000D02*
X169025000Y-102325000D01*
X163625000Y-107725000D02*
X163225000Y-107725000D01*
X163325000Y-107825000D02*
X163525000Y-107825000D01*
X169025000Y-102325000D02*
X163625000Y-107725000D01*
X151425000Y-107625000D02*
X153050000Y-106000000D01*
X166485000Y-102325000D02*
X164025000Y-99865000D01*
X153050000Y-106000000D02*
X162810000Y-106000000D01*
X164025000Y-99865000D02*
X164025000Y-95125000D01*
X162810000Y-106000000D02*
X166485000Y-102325000D01*
X174025000Y-99865000D02*
X171565000Y-102325000D01*
X171565000Y-102325000D02*
X171565000Y-104315000D01*
X174025000Y-95125000D02*
X174025000Y-99865000D01*
X171565000Y-104315000D02*
X174925000Y-107675000D01*
M02*
